<svg width="134" height="27" viewBox="0 0 134 27" fill="none" xmlns="http://www.w3.org/2000/svg">
<g filter="url(#filter0_d_32_2)">
<path d="M14.514 8.39C14.97 8.81 15.306 9.314 15.522 9.902C15.738 10.478 15.822 11.054 15.774 11.63C15.726 12.182 15.552 12.692 15.252 13.16C14.952 13.616 14.496 13.964 13.884 14.204C13.404 14.408 12.93 14.552 12.462 14.636C11.994 14.72 11.478 14.786 10.914 14.834C10.662 14.858 10.446 14.876 10.266 14.888C10.098 14.888 9.9 14.894 9.672 14.906C9.624 14.906 9.54 14.906 9.42 14.906C9.312 14.906 9.234 14.912 9.186 14.924V18.65C9.15 18.878 9.102 19.112 9.042 19.352C8.994 19.592 8.856 19.778 8.628 19.91C8.496 19.982 8.334 20.024 8.142 20.036C7.95 20.048 7.776 20.042 7.62 20.018C7.452 19.994 7.308 19.952 7.188 19.892C7.08 19.82 6.99 19.7 6.918 19.532C6.87 19.424 6.822 19.304 6.774 19.172C6.738 19.028 6.72 18.854 6.72 18.65V8.696C6.72 8.612 6.726 8.534 6.738 8.462C6.75 8.39 6.762 8.318 6.774 8.246C6.798 8.186 6.816 8.12 6.828 8.048C6.84 7.976 6.858 7.91 6.882 7.85C6.906 7.79 6.93 7.736 6.954 7.688C6.99 7.64 7.032 7.598 7.08 7.562C7.14 7.502 7.23 7.448 7.35 7.4C7.482 7.352 7.674 7.328 7.926 7.328H7.962C8.334 7.304 8.748 7.286 9.204 7.274C9.66 7.25 10.038 7.256 10.338 7.292C10.506 7.316 10.662 7.334 10.806 7.346C10.95 7.346 11.088 7.352 11.22 7.364C11.364 7.376 11.508 7.388 11.652 7.4C11.796 7.412 11.94 7.43 12.084 7.454C12.204 7.478 12.312 7.496 12.408 7.508C12.516 7.52 12.624 7.538 12.732 7.562C12.828 7.586 12.93 7.61 13.038 7.634C13.158 7.658 13.266 7.7 13.362 7.76C13.614 7.832 13.824 7.922 13.992 8.03C14.16 8.138 14.334 8.258 14.514 8.39ZM13.434 11.36C13.446 11.072 13.386 10.82 13.254 10.604C13.134 10.388 12.96 10.208 12.732 10.064C12.504 9.92 12.246 9.806 11.958 9.722C11.67 9.638 11.382 9.578 11.094 9.542C11.022 9.542 10.92 9.542 10.788 9.542C10.668 9.53 10.536 9.524 10.392 9.524C10.248 9.512 10.11 9.506 9.978 9.506C9.858 9.494 9.762 9.488 9.69 9.488C9.63 9.476 9.558 9.47 9.474 9.47C9.39 9.47 9.294 9.47 9.186 9.47C9.198 9.842 9.204 10.202 9.204 10.55C9.204 10.886 9.204 11.252 9.204 11.648C9.192 11.864 9.186 12.08 9.186 12.296C9.186 12.512 9.186 12.722 9.186 12.926L10.302 12.908C10.59 12.908 10.908 12.89 11.256 12.854C11.604 12.818 11.934 12.746 12.246 12.638C12.558 12.53 12.822 12.374 13.038 12.17C13.266 11.966 13.398 11.696 13.434 11.36ZM19.7153 9.416L19.6793 12.242H20.3993C20.8913 12.23 21.3293 12.224 21.7133 12.224C22.0973 12.224 22.5233 12.23 22.9913 12.242H23.0813C23.2253 12.242 23.3633 12.248 23.4953 12.26C23.6393 12.26 23.7773 12.26 23.9093 12.26C24.0533 12.272 24.1913 12.296 24.3233 12.332C24.4553 12.356 24.5873 12.386 24.7193 12.422C24.9233 12.494 25.0913 12.602 25.2233 12.746C25.3433 12.902 25.4033 13.076 25.4033 13.268C25.4033 13.328 25.4033 13.4 25.4033 13.484C25.4033 13.556 25.3913 13.622 25.3673 13.682C25.3433 13.814 25.2653 13.934 25.1333 14.042C25.0733 14.126 24.9593 14.186 24.7913 14.222C24.6353 14.27 24.4793 14.3 24.3233 14.312C24.1553 14.348 23.9873 14.366 23.8193 14.366H22.9733L19.6433 14.384L19.6073 17.912L23.1893 17.948H24.0353C24.1313 17.948 24.2213 17.948 24.3053 17.948C24.3893 17.948 24.4673 17.954 24.5393 17.966C24.6353 17.99 24.7193 18.008 24.7913 18.02C24.8753 18.02 24.9533 18.032 25.0253 18.056C25.1693 18.104 25.2893 18.17 25.3853 18.254C25.5053 18.374 25.5833 18.5 25.6193 18.632C25.6313 18.692 25.6373 18.758 25.6373 18.83C25.6493 18.89 25.6493 18.956 25.6373 19.028C25.6373 19.22 25.5773 19.394 25.4573 19.55C25.3133 19.718 25.1453 19.826 24.9533 19.874C24.7013 19.982 24.4253 20.036 24.1253 20.036C23.9933 20.048 23.8553 20.054 23.7113 20.054C23.5673 20.054 23.4293 20.06 23.2973 20.072H23.1893C22.2533 20.096 21.2813 20.096 20.2733 20.072C20.0333 20.072 19.8413 20.066 19.6973 20.054C19.5533 20.054 19.4213 20.054 19.3013 20.054C19.1933 20.054 19.0793 20.054 18.9593 20.054C18.8393 20.054 18.6833 20.054 18.4913 20.054C18.2153 20.078 17.9873 20.03 17.8073 19.91C17.6753 19.826 17.5733 19.712 17.5013 19.568C17.4653 19.532 17.4473 19.496 17.4473 19.46C17.4353 19.436 17.4233 19.418 17.4113 19.406C17.3993 19.394 17.3873 19.376 17.3753 19.352C17.3513 19.292 17.3333 19.232 17.3213 19.172C17.3093 19.1 17.3033 19.034 17.3033 18.974C17.2913 18.914 17.2793 18.854 17.2673 18.794C17.2673 18.734 17.2613 18.674 17.2493 18.614V18.326C17.2493 18.278 17.2493 18.23 17.2493 18.182C17.2613 18.134 17.2673 18.086 17.2673 18.038V16.634L17.3033 14.042V11.648C17.3033 11.216 17.3033 10.832 17.3033 10.496C17.3153 10.16 17.3273 9.794 17.3393 9.398V9.308C17.3513 9.176 17.3573 9.056 17.3573 8.948C17.3693 8.828 17.3753 8.708 17.3753 8.588C17.3873 8.348 17.4533 8.114 17.5733 7.886C17.6213 7.79 17.6693 7.706 17.7173 7.634C17.7773 7.562 17.8553 7.502 17.9513 7.454C18.1313 7.346 18.3173 7.292 18.5093 7.292C18.6053 7.292 18.6773 7.298 18.7253 7.31V7.292C18.9413 7.292 19.1153 7.292 19.2473 7.292C19.3793 7.292 19.5053 7.292 19.6253 7.292C19.7573 7.292 19.8953 7.292 20.0393 7.292C20.1833 7.28 20.3813 7.274 20.6333 7.274C21.1133 7.262 21.5693 7.256 22.0013 7.256C22.4333 7.256 22.8773 7.262 23.3333 7.274H23.4053C23.5373 7.286 23.6753 7.292 23.8193 7.292C23.9633 7.292 24.1013 7.298 24.2333 7.31C24.3653 7.31 24.4973 7.328 24.6293 7.364C24.7613 7.388 24.8933 7.424 25.0253 7.472C25.2293 7.532 25.3973 7.634 25.5293 7.778C25.6373 7.946 25.6913 8.114 25.6913 8.282C25.6913 8.354 25.6913 8.426 25.6913 8.498C25.6913 8.558 25.6793 8.618 25.6553 8.678C25.6433 8.798 25.5713 8.924 25.4393 9.056C25.3913 9.08 25.3373 9.11 25.2773 9.146C25.2293 9.182 25.1693 9.212 25.0973 9.236C25.0253 9.26 24.9473 9.278 24.8633 9.29C24.7913 9.29 24.7193 9.296 24.6473 9.308C24.5513 9.332 24.4613 9.344 24.3773 9.344C24.3053 9.344 24.2213 9.344 24.1253 9.344H23.3153L19.7153 9.362V9.416ZM36.7126 7.814C36.8446 7.97 36.9106 8.132 36.9106 8.3C36.9106 8.372 36.9046 8.45 36.8926 8.534C36.8926 8.606 36.8866 8.672 36.8746 8.732C36.8386 8.864 36.7606 8.99 36.6406 9.11C36.5446 9.182 36.4126 9.236 36.2446 9.272C36.1606 9.296 36.0766 9.314 35.9926 9.326C35.9086 9.338 35.8186 9.356 35.7226 9.38C35.6386 9.392 35.5546 9.398 35.4706 9.398C35.3866 9.398 35.2966 9.398 35.2006 9.398H34.2826C34.0666 9.41 33.8506 9.416 33.6346 9.416C33.4306 9.416 33.2266 9.416 33.0226 9.416C33.0346 9.788 33.0406 10.19 33.0406 10.622C33.0406 11.042 33.0346 11.534 33.0226 12.098C33.0226 12.662 33.0166 13.316 33.0046 14.06C33.0046 14.804 33.0046 15.668 33.0046 16.652V18.02C33.0046 18.14 33.0106 18.23 33.0226 18.29C33.0226 18.338 33.0226 18.386 33.0226 18.434C33.0226 18.47 33.0166 18.518 33.0046 18.578C32.9806 18.686 32.9626 18.812 32.9506 18.956C32.9506 19.016 32.9446 19.076 32.9326 19.136C32.9206 19.184 32.9026 19.238 32.8786 19.298C32.8306 19.346 32.8066 19.382 32.8066 19.406L32.7526 19.514C32.6926 19.634 32.5786 19.748 32.4106 19.856C32.1466 19.988 31.8526 20.018 31.5286 19.946C31.3246 19.922 31.1686 19.868 31.0606 19.784C30.9526 19.676 30.8746 19.568 30.8266 19.46C30.7546 19.328 30.7126 19.202 30.7006 19.082C30.6646 18.974 30.6466 18.86 30.6466 18.74V9.488C30.5746 9.488 30.4246 9.488 30.1966 9.488C29.9686 9.488 29.7226 9.488 29.4586 9.488C29.2066 9.476 28.9666 9.464 28.7386 9.452C28.5106 9.44 28.3546 9.428 28.2706 9.416C28.1986 9.404 28.0846 9.386 27.9286 9.362C27.7846 9.338 27.6646 9.314 27.5686 9.29C27.3166 9.218 27.1186 9.104 26.9746 8.948C26.8426 8.792 26.7766 8.618 26.7766 8.426C26.7766 8.354 26.7766 8.282 26.7766 8.21C26.7766 8.138 26.7886 8.072 26.8126 8.012C26.8486 7.868 26.9446 7.748 27.1006 7.652C27.1486 7.616 27.2206 7.574 27.3166 7.526C27.4246 7.466 27.5266 7.424 27.6226 7.4C27.7666 7.352 27.9466 7.316 28.1626 7.292C28.2586 7.28 28.3546 7.274 28.4506 7.274C28.5466 7.274 28.6486 7.274 28.7566 7.274C29.1766 7.274 29.5726 7.274 29.9446 7.274C30.3286 7.274 30.7306 7.268 31.1506 7.256C31.8466 7.244 32.5366 7.244 33.2206 7.256C33.9166 7.256 34.6066 7.268 35.2906 7.292C35.4466 7.304 35.5966 7.322 35.7406 7.346C35.8846 7.37 36.0286 7.412 36.1726 7.472C36.2806 7.508 36.3826 7.556 36.4786 7.616C36.5746 7.664 36.6526 7.73 36.7126 7.814ZM47.1221 14.762C47.1821 14.93 47.2241 15.122 47.2481 15.338C47.2841 15.542 47.3021 15.752 47.3021 15.968C47.3021 16.184 47.2841 16.4 47.2481 16.616C47.2241 16.82 47.1881 17 47.1401 17.156C46.9481 17.828 46.5641 18.392 45.9881 18.848C45.4121 19.292 44.7521 19.616 44.0081 19.82C43.2761 20.024 42.5141 20.096 41.7221 20.036C40.9421 19.976 40.2461 19.778 39.6341 19.442C39.2501 19.226 38.9201 18.962 38.6441 18.65C38.3681 18.338 38.1341 17.99 37.9421 17.606C37.8701 17.474 37.8221 17.324 37.7981 17.156C37.7861 16.976 37.8041 16.808 37.8521 16.652C37.9001 16.484 37.9781 16.34 38.0861 16.22C38.1941 16.088 38.3441 15.998 38.5361 15.95C38.6561 15.926 38.7881 15.914 38.9321 15.914C39.0881 15.914 39.2381 15.938 39.3821 15.986C39.5261 16.022 39.6581 16.088 39.7781 16.184C39.8981 16.268 39.9941 16.388 40.0661 16.544C40.1981 16.796 40.3841 17.03 40.6241 17.246C40.8761 17.45 41.1401 17.618 41.4161 17.75C41.8121 17.882 42.2081 17.936 42.6041 17.912C43.0121 17.888 43.3781 17.798 43.7021 17.642C44.0381 17.486 44.3081 17.276 44.5121 17.012C44.7161 16.736 44.8181 16.424 44.8181 16.076C44.8181 15.788 44.7761 15.554 44.6921 15.374C44.6081 15.182 44.4881 15.026 44.3321 14.906C44.1881 14.774 44.0081 14.666 43.7921 14.582C43.5881 14.498 43.3601 14.426 43.1081 14.366C42.8201 14.306 42.5261 14.264 42.2261 14.24C41.9381 14.216 41.6441 14.186 41.3441 14.15C41.0441 14.114 40.7501 14.066 40.4621 14.006C40.1741 13.946 39.8921 13.856 39.6161 13.736C39.0641 13.508 38.6441 13.16 38.3561 12.692C38.0681 12.224 37.8941 11.72 37.8341 11.18C37.7861 10.64 37.8521 10.106 38.0321 9.578C38.2121 9.038 38.5001 8.576 38.8961 8.192C39.2801 7.844 39.7361 7.598 40.2641 7.454C40.8041 7.298 41.3981 7.208 42.0461 7.184C42.4061 7.172 42.7661 7.184 43.1261 7.22C43.4981 7.256 43.8521 7.316 44.1881 7.4C44.5361 7.484 44.8541 7.592 45.1421 7.724C45.4421 7.856 45.7001 8.012 45.9161 8.192C46.0721 8.312 46.2281 8.474 46.3841 8.678C46.5401 8.87 46.6601 9.08 46.7441 9.308C46.8281 9.524 46.8521 9.734 46.8161 9.938C46.7921 10.142 46.6661 10.316 46.4381 10.46C46.2461 10.58 46.0601 10.634 45.8801 10.622C45.7121 10.598 45.5501 10.544 45.3941 10.46C45.2381 10.364 45.0881 10.256 44.9441 10.136C44.8001 10.016 44.6681 9.908 44.5481 9.812C44.2241 9.572 43.8221 9.41 43.3421 9.326C42.8621 9.242 42.4121 9.224 41.9921 9.272C41.7281 9.308 41.4821 9.368 41.2541 9.452C41.0261 9.536 40.8281 9.65 40.6601 9.794C40.5041 9.938 40.3781 10.118 40.2821 10.334C40.1981 10.538 40.1681 10.772 40.1921 11.036C40.2041 11.228 40.2581 11.39 40.3541 11.522C40.4621 11.654 40.5881 11.762 40.7321 11.846C40.8881 11.93 41.0561 11.996 41.2361 12.044C41.4161 12.092 41.5961 12.128 41.7761 12.152C42.3161 12.224 42.8561 12.278 43.3961 12.314C43.9361 12.35 44.4641 12.47 44.9801 12.674C45.5081 12.878 45.9581 13.154 46.3301 13.502C46.7021 13.85 46.9661 14.27 47.1221 14.762ZM53.9831 18.092L54.0011 16.67L54.0191 14.024C54.0311 13.64 54.0371 13.244 54.0371 12.836C54.0371 12.428 54.0371 12.008 54.0371 11.576C54.0371 11.144 54.0371 10.76 54.0371 10.424C54.0371 10.088 54.0491 9.71 54.0731 9.29V9.218C54.0851 9.098 54.0911 8.978 54.0911 8.858C54.1031 8.726 54.1091 8.594 54.1091 8.462C54.1211 8.246 54.1871 8.012 54.3071 7.76C54.3911 7.592 54.5171 7.448 54.6851 7.328C54.8771 7.232 55.0631 7.184 55.2431 7.184C55.3391 7.184 55.4231 7.19 55.4951 7.202C55.5791 7.202 55.6571 7.208 55.7291 7.22C55.8851 7.244 56.0231 7.316 56.1431 7.436C56.2151 7.496 56.2811 7.592 56.3411 7.724C56.3651 7.796 56.3831 7.868 56.3951 7.94C56.4191 8 56.4371 8.066 56.4491 8.138C56.4611 8.222 56.4671 8.3 56.4671 8.372C56.4791 8.444 56.4851 8.516 56.4851 8.588C56.4851 8.672 56.4791 8.75 56.4671 8.822C56.4671 8.882 56.4671 8.948 56.4671 9.02V9.326L56.3591 18.668V18.848C56.3591 18.884 56.3531 18.932 56.3411 18.992C56.3411 19.04 56.3351 19.1 56.3231 19.172C56.2991 19.232 56.2751 19.298 56.2511 19.37C56.2391 19.43 56.2211 19.496 56.1971 19.568C56.1611 19.628 56.1191 19.688 56.0711 19.748C56.0351 19.796 55.9871 19.844 55.9271 19.892C55.8311 19.988 55.6751 20.054 55.4591 20.09C55.1351 20.162 54.8291 20.132 54.5411 20C54.3971 19.904 54.2951 19.784 54.2351 19.64C54.1991 19.604 54.1811 19.568 54.1811 19.532C54.1691 19.508 54.1571 19.49 54.1451 19.478C54.1331 19.466 54.1211 19.448 54.1091 19.424C54.0851 19.364 54.0671 19.304 54.0551 19.244C54.0431 19.172 54.0371 19.1 54.0371 19.028C54.0251 18.968 54.0131 18.908 54.0011 18.848C54.0011 18.788 53.9951 18.728 53.9831 18.668C53.9711 18.572 53.9711 18.47 53.9831 18.362V18.092ZM68.262 18.632C68.25 18.836 68.22 19.052 68.172 19.28C68.136 19.508 68.022 19.694 67.83 19.838C67.686 19.958 67.524 20.03 67.344 20.054C67.164 20.078 66.984 20.066 66.804 20.018C66.636 19.982 66.474 19.922 66.318 19.838C66.162 19.742 66.036 19.628 65.94 19.496C65.532 18.992 65.154 18.476 64.806 17.948C64.47 17.408 64.128 16.868 63.78 16.328L62.268 14.042C62.064 13.718 61.848 13.358 61.62 12.962C61.392 12.554 61.158 12.176 60.918 11.828L60.864 18.704V18.866C60.864 19.058 60.828 19.25 60.756 19.442C60.696 19.622 60.588 19.778 60.432 19.91C60.312 20.006 60.156 20.072 59.964 20.108C59.664 20.168 59.412 20.15 59.208 20.054C59.016 19.958 58.86 19.826 58.74 19.658C58.632 19.49 58.554 19.298 58.506 19.082C58.47 18.854 58.464 18.632 58.488 18.416V18.11L58.524 16.706L58.542 14.096C58.554 13.712 58.56 13.322 58.56 12.926C58.56 12.518 58.56 12.104 58.56 11.684C58.548 11.168 58.548 10.622 58.56 10.046C58.584 9.47 58.608 8.93 58.632 8.426C58.656 8.15 58.722 7.916 58.83 7.724C58.878 7.556 59.004 7.412 59.208 7.292C59.34 7.208 59.508 7.154 59.712 7.13C59.928 7.106 60.114 7.112 60.27 7.148C60.33 7.172 60.39 7.202 60.45 7.238C60.51 7.262 60.57 7.292 60.63 7.328C60.69 7.376 60.744 7.424 60.792 7.472C60.852 7.52 60.906 7.574 60.954 7.634C61.014 7.694 61.068 7.76 61.116 7.832C61.164 7.892 61.212 7.952 61.26 8.012C61.296 8.084 61.332 8.15 61.368 8.21C61.404 8.27 61.446 8.33 61.494 8.39L61.692 8.678L65.85 15.23V14.042C65.85 13.658 65.844 13.268 65.832 12.872C65.832 12.464 65.826 12.044 65.814 11.612C65.814 11.108 65.814 10.568 65.814 9.992C65.826 9.416 65.844 8.876 65.868 8.372C65.868 8.168 65.928 7.934 66.048 7.67C66.108 7.514 66.21 7.388 66.354 7.292C66.498 7.196 66.66 7.13 66.84 7.094C67.02 7.058 67.2 7.058 67.38 7.094C67.56 7.13 67.716 7.202 67.848 7.31C67.884 7.346 67.92 7.388 67.956 7.436C67.992 7.484 68.022 7.538 68.046 7.598C68.106 7.754 68.142 7.892 68.154 8.012C68.19 8.18 68.208 8.33 68.208 8.462C68.208 9.962 68.208 11.492 68.208 13.052C68.22 14.612 68.232 16.142 68.244 17.642C68.244 17.81 68.25 17.978 68.262 18.146C68.274 18.302 68.274 18.464 68.262 18.632ZM83.1078 18.704C83.2038 18.884 83.2098 19.064 83.1258 19.244C83.0658 19.436 82.9638 19.58 82.8198 19.676C82.7478 19.736 82.6818 19.79 82.6218 19.838C82.5618 19.874 82.4958 19.904 82.4238 19.928C82.2918 20 82.1358 20.024 81.9558 20C81.8838 20 81.8178 19.988 81.7578 19.964C81.6978 19.94 81.6378 19.91 81.5778 19.874C81.5178 19.838 81.4518 19.802 81.3798 19.766C81.3198 19.718 81.2598 19.67 81.1998 19.622C81.1278 19.562 81.0618 19.508 81.0018 19.46C80.9418 19.412 80.8878 19.358 80.8398 19.298C80.7798 19.238 80.7258 19.178 80.6778 19.118C80.6298 19.058 80.5818 19.004 80.5338 18.956L80.3178 18.722L76.8618 15.104L76.9158 18.722V18.884C76.9158 18.932 76.9098 18.986 76.8978 19.046C76.8858 19.094 76.8738 19.148 76.8618 19.208C76.8258 19.364 76.7838 19.502 76.7358 19.622C76.7118 19.694 76.6758 19.754 76.6278 19.802C76.5918 19.85 76.5498 19.898 76.5018 19.946C76.3698 20.066 76.2138 20.132 76.0338 20.144C75.8538 20.204 75.6858 20.222 75.5298 20.198C75.3858 20.186 75.2358 20.144 75.0798 20.072C74.9598 20 74.8518 19.88 74.7558 19.712C74.7318 19.664 74.7138 19.634 74.7018 19.622C74.7018 19.61 74.6898 19.568 74.6658 19.496C74.5938 19.376 74.5578 19.256 74.5578 19.136C74.5458 19.064 74.5338 18.998 74.5218 18.938C74.5218 18.878 74.5158 18.812 74.5038 18.74C74.4918 18.692 74.4858 18.644 74.4858 18.596C74.4858 18.548 74.4858 18.5 74.4858 18.452C74.4978 18.392 74.5038 18.344 74.5038 18.308C74.5038 18.26 74.5038 18.206 74.5038 18.146L74.4858 16.724L74.4678 14.078C74.4678 13.31 74.4498 12.482 74.4138 11.594C74.4018 11.162 74.3958 10.778 74.3958 10.442C74.3958 10.106 74.4018 9.728 74.4138 9.308V9.236C74.4378 9.104 74.4498 8.978 74.4498 8.858C74.4498 8.726 74.4558 8.6 74.4678 8.48C74.4678 8.24 74.5218 8 74.6298 7.76C74.7018 7.58 74.8278 7.436 75.0078 7.328C75.1038 7.268 75.1938 7.232 75.2778 7.22C75.3738 7.196 75.4758 7.172 75.5838 7.148C75.6678 7.148 75.7458 7.154 75.8178 7.166C75.9018 7.178 75.9798 7.19 76.0518 7.202C76.2078 7.226 76.3518 7.292 76.4838 7.4C76.5198 7.436 76.5498 7.478 76.5738 7.526C76.6098 7.574 76.6398 7.634 76.6638 7.706C76.7238 7.802 76.7658 7.94 76.7898 8.12C76.8018 8.192 76.8078 8.264 76.8078 8.336C76.8198 8.408 76.8258 8.486 76.8258 8.57V9.308L76.8438 11.504C77.0358 11.336 77.2218 11.162 77.4018 10.982C77.5938 10.802 77.7798 10.61 77.9598 10.406C78.2838 10.07 78.6018 9.746 78.9138 9.434C79.2378 9.11 79.5618 8.792 79.8858 8.48L79.9398 8.426C80.0358 8.33 80.1318 8.24 80.2278 8.156C80.3358 8.06 80.4378 7.97 80.5338 7.886C80.7138 7.682 80.9358 7.538 81.1998 7.454C81.3678 7.346 81.5658 7.304 81.7938 7.328C81.9018 7.34 81.9978 7.364 82.0818 7.4C82.1778 7.436 82.2678 7.484 82.3518 7.544C82.4118 7.604 82.4718 7.658 82.5318 7.706C82.5918 7.742 82.6398 7.79 82.6758 7.85C82.7718 7.934 82.8318 8.06 82.8558 8.228C82.8558 8.36 82.8318 8.48 82.7838 8.588C82.7478 8.648 82.7118 8.708 82.6758 8.768C82.6398 8.828 82.5978 8.888 82.5498 8.948C82.4898 9.02 82.4358 9.086 82.3878 9.146C82.3398 9.206 82.2858 9.266 82.2258 9.326C82.1778 9.386 82.1238 9.44 82.0638 9.488C82.0158 9.536 81.9678 9.59 81.9198 9.65L81.6858 9.884L78.3198 13.322C78.4998 13.502 78.6858 13.694 78.8778 13.898C79.0818 14.09 79.2738 14.282 79.4538 14.474C79.6338 14.654 79.8018 14.828 79.9578 14.996C80.1138 15.152 80.2458 15.284 80.3538 15.392C80.6778 15.728 80.9898 16.064 81.2898 16.4C81.5898 16.724 81.8838 17.054 82.1718 17.39L82.2258 17.444C82.3218 17.54 82.4118 17.642 82.4958 17.75C82.5798 17.846 82.6578 17.942 82.7298 18.038C82.9098 18.242 83.0358 18.464 83.1078 18.704ZM86.9333 7.688C87.7373 7.388 88.4633 7.256 89.1113 7.292C89.7713 7.328 90.3593 7.496 90.8753 7.796C91.3913 8.084 91.8293 8.474 92.1893 8.966C92.5613 9.458 92.8613 10.01 93.0893 10.622C93.2693 11.078 93.4073 11.558 93.5033 12.062C93.5993 12.566 93.6533 13.07 93.6653 13.574C93.6893 14.066 93.6713 14.552 93.6113 15.032C93.5633 15.512 93.4793 15.956 93.3593 16.364C93.2873 16.64 93.2033 16.892 93.1073 17.12C93.0113 17.348 92.8973 17.576 92.7653 17.804C92.4653 18.32 92.0753 18.74 91.5953 19.064C91.1273 19.388 90.6113 19.616 90.0473 19.748C89.6633 19.844 89.2673 19.892 88.8593 19.892C88.4513 19.88 88.0493 19.826 87.6533 19.73C87.2573 19.622 86.8733 19.472 86.5013 19.28C86.1413 19.076 85.8113 18.824 85.5113 18.524C85.1393 18.164 84.8333 17.75 84.5933 17.282C84.3533 16.802 84.1673 16.304 84.0353 15.788C83.9033 15.26 83.8193 14.732 83.7833 14.204C83.7473 13.676 83.7473 13.172 83.7833 12.692C83.8193 12.248 83.9033 11.774 84.0353 11.27C84.1793 10.766 84.3833 10.28 84.6473 9.812C84.9113 9.344 85.2293 8.924 85.6013 8.552C85.9853 8.168 86.4293 7.88 86.9333 7.688ZM91.1453 15.392C91.2893 14.828 91.3493 14.192 91.3253 13.484C91.3013 12.776 91.1873 12.11 90.9833 11.486C90.8513 11.102 90.6833 10.766 90.4793 10.478C90.2873 10.178 90.0533 9.95 89.7773 9.794C89.5133 9.638 89.2013 9.56 88.8413 9.56C88.4813 9.56 88.0793 9.668 87.6353 9.884C87.3713 10.016 87.1433 10.196 86.9513 10.424C86.7713 10.652 86.6213 10.91 86.5013 11.198C86.3933 11.486 86.3033 11.786 86.2313 12.098C86.1713 12.41 86.1353 12.71 86.1233 12.998C86.0993 13.31 86.0933 13.64 86.1053 13.988C86.1173 14.324 86.1533 14.666 86.2133 15.014C86.2853 15.35 86.3813 15.674 86.5013 15.986C86.6213 16.286 86.7833 16.556 86.9873 16.796C87.2993 17.156 87.6593 17.408 88.0673 17.552C88.4873 17.684 88.9013 17.702 89.3093 17.606C89.9693 17.462 90.4733 17.024 90.8213 16.292C90.9653 16.028 91.0733 15.728 91.1453 15.392ZM104.426 19.208C104.438 19.328 104.426 19.442 104.39 19.55C104.366 19.622 104.33 19.682 104.282 19.73C104.246 19.778 104.198 19.826 104.138 19.874C104.03 19.946 103.898 20.012 103.742 20.072C103.646 20.096 103.55 20.114 103.454 20.126C103.37 20.15 103.28 20.15 103.184 20.126C102.992 20.114 102.824 20.042 102.68 19.91C102.476 19.742 102.308 19.556 102.176 19.352C102.116 19.256 102.05 19.148 101.978 19.028C101.906 18.908 101.84 18.782 101.78 18.65L99.782 14.852C99.686 14.852 99.59 14.858 99.494 14.87C99.398 14.87 99.302 14.876 99.206 14.888C98.954 14.912 98.714 14.918 98.486 14.906C98.27 14.894 98.042 14.894 97.802 14.906H97.46V18.164C97.46 18.26 97.454 18.35 97.442 18.434C97.442 18.518 97.442 18.608 97.442 18.704C97.442 18.764 97.436 18.842 97.424 18.938C97.424 19.034 97.418 19.124 97.406 19.208C97.382 19.34 97.328 19.478 97.244 19.622C97.16 19.754 97.046 19.868 96.902 19.964C96.65 20.12 96.344 20.162 95.984 20.09C95.828 20.054 95.678 19.994 95.534 19.91C95.486 19.874 95.444 19.832 95.408 19.784C95.372 19.724 95.342 19.664 95.318 19.604C95.294 19.544 95.27 19.484 95.246 19.424C95.234 19.352 95.216 19.286 95.192 19.226C95.156 19.106 95.138 18.992 95.138 18.884V8.66C95.138 8.588 95.138 8.516 95.138 8.444C95.15 8.36 95.162 8.288 95.174 8.228C95.186 8.096 95.228 7.964 95.3 7.832C95.336 7.688 95.396 7.586 95.48 7.526C95.552 7.454 95.66 7.394 95.804 7.346C95.96 7.286 96.182 7.262 96.47 7.274C97.01 7.286 97.544 7.292 98.072 7.292C98.6 7.292 99.128 7.304 99.656 7.328C100.004 7.352 100.37 7.394 100.754 7.454C101.15 7.502 101.516 7.592 101.852 7.724C102.068 7.808 102.266 7.892 102.446 7.976C102.674 8.108 102.854 8.234 102.986 8.354C103.406 8.738 103.724 9.2 103.94 9.74C104.156 10.28 104.264 10.826 104.264 11.378C104.264 12.026 104.108 12.62 103.796 13.16C103.496 13.7 103.01 14.102 102.338 14.366C102.314 14.39 102.278 14.408 102.23 14.42C102.194 14.42 102.164 14.426 102.14 14.438L103.796 17.768L103.958 18.056C103.982 18.104 104.012 18.158 104.048 18.218C104.084 18.278 104.114 18.338 104.138 18.398C104.174 18.458 104.204 18.524 104.228 18.596C104.264 18.668 104.3 18.734 104.336 18.794C104.372 18.962 104.402 19.1 104.426 19.208ZM99.926 12.8C100.142 12.8 100.346 12.764 100.538 12.692C100.742 12.608 100.922 12.5 101.078 12.368C101.246 12.236 101.384 12.086 101.492 11.918C101.6 11.738 101.66 11.546 101.672 11.342C101.72 10.742 101.564 10.298 101.204 10.01C100.844 9.71 100.37 9.548 99.782 9.524C99.434 9.5 99.05 9.488 98.63 9.488C98.222 9.488 97.832 9.488 97.46 9.488C97.472 9.98 97.472 10.484 97.46 11C97.46 11.504 97.46 12.104 97.46 12.8H99.926ZM108.344 9.416L108.308 12.242H109.028C109.52 12.23 109.958 12.224 110.342 12.224C110.726 12.224 111.152 12.23 111.62 12.242H111.71C111.854 12.242 111.992 12.248 112.124 12.26C112.268 12.26 112.406 12.26 112.538 12.26C112.682 12.272 112.82 12.296 112.952 12.332C113.084 12.356 113.216 12.386 113.348 12.422C113.552 12.494 113.72 12.602 113.852 12.746C113.972 12.902 114.032 13.076 114.032 13.268C114.032 13.328 114.032 13.4 114.032 13.484C114.032 13.556 114.02 13.622 113.996 13.682C113.972 13.814 113.894 13.934 113.762 14.042C113.702 14.126 113.588 14.186 113.42 14.222C113.264 14.27 113.108 14.3 112.952 14.312C112.784 14.348 112.616 14.366 112.448 14.366H111.602L108.272 14.384L108.236 17.912L111.818 17.948H112.664C112.76 17.948 112.85 17.948 112.934 17.948C113.018 17.948 113.096 17.954 113.168 17.966C113.264 17.99 113.348 18.008 113.42 18.02C113.504 18.02 113.582 18.032 113.654 18.056C113.798 18.104 113.918 18.17 114.014 18.254C114.134 18.374 114.212 18.5 114.248 18.632C114.26 18.692 114.266 18.758 114.266 18.83C114.278 18.89 114.278 18.956 114.266 19.028C114.266 19.22 114.206 19.394 114.086 19.55C113.942 19.718 113.774 19.826 113.582 19.874C113.33 19.982 113.054 20.036 112.754 20.036C112.622 20.048 112.484 20.054 112.34 20.054C112.196 20.054 112.058 20.06 111.926 20.072H111.818C110.882 20.096 109.91 20.096 108.902 20.072C108.662 20.072 108.47 20.066 108.326 20.054C108.182 20.054 108.05 20.054 107.93 20.054C107.822 20.054 107.708 20.054 107.588 20.054C107.468 20.054 107.312 20.054 107.12 20.054C106.844 20.078 106.616 20.03 106.436 19.91C106.304 19.826 106.202 19.712 106.13 19.568C106.094 19.532 106.076 19.496 106.076 19.46C106.064 19.436 106.052 19.418 106.04 19.406C106.028 19.394 106.016 19.376 106.004 19.352C105.98 19.292 105.962 19.232 105.95 19.172C105.938 19.1 105.932 19.034 105.932 18.974C105.92 18.914 105.908 18.854 105.896 18.794C105.896 18.734 105.89 18.674 105.878 18.614V18.326C105.878 18.278 105.878 18.23 105.878 18.182C105.89 18.134 105.896 18.086 105.896 18.038V16.634L105.932 14.042V11.648C105.932 11.216 105.932 10.832 105.932 10.496C105.944 10.16 105.956 9.794 105.968 9.398V9.308C105.98 9.176 105.986 9.056 105.986 8.948C105.998 8.828 106.004 8.708 106.004 8.588C106.016 8.348 106.082 8.114 106.202 7.886C106.25 7.79 106.298 7.706 106.346 7.634C106.406 7.562 106.484 7.502 106.58 7.454C106.76 7.346 106.946 7.292 107.138 7.292C107.234 7.292 107.306 7.298 107.354 7.31V7.292C107.57 7.292 107.744 7.292 107.876 7.292C108.008 7.292 108.134 7.292 108.254 7.292C108.386 7.292 108.524 7.292 108.668 7.292C108.812 7.28 109.01 7.274 109.262 7.274C109.742 7.262 110.198 7.256 110.63 7.256C111.062 7.256 111.506 7.262 111.962 7.274H112.034C112.166 7.286 112.304 7.292 112.448 7.292C112.592 7.292 112.73 7.298 112.862 7.31C112.994 7.31 113.126 7.328 113.258 7.364C113.39 7.388 113.522 7.424 113.654 7.472C113.858 7.532 114.026 7.634 114.158 7.778C114.266 7.946 114.32 8.114 114.32 8.282C114.32 8.354 114.32 8.426 114.32 8.498C114.32 8.558 114.308 8.618 114.284 8.678C114.272 8.798 114.2 8.924 114.068 9.056C114.02 9.08 113.966 9.11 113.906 9.146C113.858 9.182 113.798 9.212 113.726 9.236C113.654 9.26 113.576 9.278 113.492 9.29C113.42 9.29 113.348 9.296 113.276 9.308C113.18 9.332 113.09 9.344 113.006 9.344C112.934 9.344 112.85 9.344 112.754 9.344H111.944L108.344 9.362V9.416ZM126.863 18.776C126.875 18.848 126.881 18.92 126.881 18.992C126.893 19.052 126.899 19.124 126.899 19.208C126.899 19.352 126.857 19.484 126.773 19.604C126.737 19.664 126.689 19.724 126.629 19.784C126.569 19.832 126.497 19.874 126.413 19.91C126.113 20.078 125.795 20.138 125.459 20.09C125.291 20.042 125.141 19.964 125.009 19.856C124.985 19.832 124.967 19.82 124.955 19.82C124.943 19.808 124.931 19.79 124.919 19.766C124.907 19.754 124.895 19.742 124.883 19.73C124.871 19.706 124.853 19.688 124.829 19.676C124.769 19.616 124.721 19.562 124.685 19.514C124.649 19.454 124.613 19.394 124.577 19.334C124.553 19.274 124.523 19.22 124.487 19.172C124.463 19.112 124.433 19.052 124.397 18.992C124.373 18.944 124.349 18.902 124.325 18.866C124.301 18.818 124.283 18.77 124.271 18.722C124.223 18.614 124.193 18.518 124.181 18.434L123.803 17.552C122.975 17.552 122.147 17.558 121.319 17.57C120.503 17.57 119.681 17.564 118.853 17.552L118.475 18.434C118.451 18.482 118.433 18.53 118.421 18.578C118.421 18.626 118.409 18.674 118.385 18.722C118.361 18.77 118.337 18.818 118.313 18.866C118.301 18.902 118.283 18.944 118.259 18.992C118.223 19.052 118.187 19.112 118.151 19.172C118.127 19.22 118.097 19.274 118.061 19.334C118.037 19.394 118.007 19.454 117.971 19.514C117.935 19.562 117.887 19.616 117.827 19.676C117.803 19.688 117.785 19.706 117.773 19.73C117.761 19.742 117.749 19.754 117.737 19.766C117.725 19.79 117.713 19.808 117.701 19.82C117.689 19.82 117.671 19.832 117.647 19.856C117.515 19.964 117.365 20.042 117.197 20.09C116.861 20.138 116.543 20.078 116.243 19.91C116.159 19.874 116.087 19.832 116.027 19.784C115.967 19.724 115.919 19.664 115.883 19.604C115.799 19.484 115.757 19.352 115.757 19.208C115.757 19.124 115.757 19.052 115.757 18.992C115.769 18.92 115.781 18.848 115.793 18.776C115.817 18.668 115.847 18.56 115.883 18.452C115.919 18.344 115.937 18.29 115.937 18.29L119.681 9.074L119.789 8.786C119.813 8.714 119.843 8.648 119.879 8.588C119.915 8.528 119.945 8.456 119.969 8.372C120.029 8.216 120.095 8.078 120.167 7.958C120.203 7.886 120.245 7.82 120.293 7.76C120.341 7.7 120.389 7.64 120.437 7.58C120.509 7.484 120.611 7.406 120.743 7.346C120.911 7.286 121.103 7.256 121.319 7.256C121.547 7.256 121.745 7.286 121.913 7.346C122.045 7.406 122.147 7.484 122.219 7.58C122.303 7.688 122.393 7.814 122.489 7.958C122.561 8.078 122.627 8.216 122.687 8.372C122.711 8.456 122.741 8.528 122.777 8.588C122.813 8.648 122.843 8.714 122.867 8.786L122.975 9.074L126.719 18.29C126.719 18.29 126.737 18.344 126.773 18.452C126.809 18.56 126.839 18.668 126.863 18.776ZM122.597 14.366C122.441 14.018 122.279 13.658 122.111 13.286C121.955 12.914 121.787 12.536 121.607 12.152C121.559 12.044 121.511 11.936 121.463 11.828C121.415 11.708 121.367 11.594 121.319 11.486C121.283 11.594 121.241 11.708 121.193 11.828C121.145 11.936 121.097 12.044 121.049 12.152C120.869 12.536 120.695 12.914 120.527 13.286C120.371 13.658 120.215 14.018 120.059 14.366L119.735 15.158H122.921L122.597 14.366Z" fill="white"/>
</g>
<defs>
<filter id="filter0_d_32_2" x="0.320001" y="0.640008" width="132.979" height="25.994" filterUnits="userSpaceOnUse" color-interpolation-filters="sRGB">
<feFlood flood-opacity="0" result="BackgroundImageFix"/>
<feColorMatrix in="SourceAlpha" type="matrix" values="0 0 0 0 0 0 0 0 0 0 0 0 0 0 0 0 0 0 127 0" result="hardAlpha"/>
<feOffset/>
<feGaussianBlur stdDeviation="3.2"/>
<feComposite in2="hardAlpha" operator="out"/>
<feColorMatrix type="matrix" values="0 0 0 0 0 0 0 0 0 0 0 0 0 0 0 0 0 0 0.25 0"/>
<feBlend mode="normal" in2="BackgroundImageFix" result="effect1_dropShadow_32_2"/>
<feBlend mode="normal" in="SourceGraphic" in2="effect1_dropShadow_32_2" result="shape"/>
</filter>
</defs>
</svg>
